<svg width="15" height="18" viewBox="0 0 15 18" fill="none" xmlns="http://www.w3.org/2000/svg">
<path d="M1.6665 4.83333H14.9998M6.6665 8.16667V13.1667M9.99984 8.16667V13.1667M2.49984 4.83333L3.33317 14.8333C3.33317 15.2754 3.50877 15.6993 3.82133 16.0118C4.13389 16.3244 4.55781 16.5 4.99984 16.5H11.6665C12.1085 16.5 12.5325 16.3244 12.845 16.0118C13.1576 15.6993 13.3332 15.2754 13.3332 14.8333L14.1665 4.83333M5.83317 4.83333V2.33333C5.83317 2.11232 5.92097 1.90036 6.07725 1.74408C6.23353 1.5878 6.44549 1.5 6.6665 1.5H9.99984C10.2209 1.5 10.4328 1.5878 10.5891 1.74408C10.7454 1.90036 10.8332 2.11232 10.8332 2.33333V4.83333" stroke="#F9967F" stroke-width="1.83333" stroke-linecap="round" stroke-linejoin="round"/>
</svg>
