<svg width="25" height="18" viewBox="0 0 25 18" fill="none" xmlns="http://www.w3.org/2000/svg">
<path d="M9.9165 9C9.9165 9.66304 10.1799 10.2989 10.6487 10.7678C11.1176 11.2366 11.7535 11.5 12.4165 11.5C13.0795 11.5 13.7154 11.2366 14.1843 10.7678C14.6531 10.2989 14.9165 9.66304 14.9165 9C14.9165 8.33696 14.6531 7.70107 14.1843 7.23223C13.7154 6.76339 13.0795 6.5 12.4165 6.5C11.7535 6.5 11.1176 6.76339 10.6487 7.23223C10.1799 7.70107 9.9165 8.33696 9.9165 9Z" stroke="#1486D9" stroke-width="1.83333" stroke-linecap="round" stroke-linejoin="round"/>
<path d="M23.6665 9C20.6665 14 16.9165 16.5 12.4165 16.5C7.9165 16.5 4.1665 14 1.1665 9C4.1665 4 7.9165 1.5 12.4165 1.5C16.9165 1.5 20.6665 4 23.6665 9Z" stroke="#1486D9" stroke-width="1.83333" stroke-linecap="round" stroke-linejoin="round"/>
</svg>
