<svg width="18" height="18" viewBox="0 0 18 18" fill="none" xmlns="http://www.w3.org/2000/svg">
<path d="M3.81355 5.02948H2.9312C2.46317 5.02948 2.01432 5.21541 1.68337 5.54635C1.35243 5.8773 1.1665 6.32615 1.1665 6.79418V14.7353C1.1665 15.2033 1.35243 15.6522 1.68337 15.9831C2.01432 16.3141 2.46317 16.5 2.9312 16.5H10.8723C11.3404 16.5 11.7892 16.3141 12.1202 15.9831C12.4511 15.6522 12.637 15.2033 12.637 14.7353V13.853M11.7547 3.26479L14.4017 5.91183M15.6238 4.66331C15.9713 4.3158 16.1665 3.84448 16.1665 3.35302C16.1665 2.86157 15.9713 2.39025 15.6238 2.04274C15.2763 1.69523 14.8049 1.5 14.3135 1.5C13.822 1.5 13.3507 1.69523 13.0032 2.04274L5.57824 9.44122V12.0883H8.22528L15.6238 4.66331Z" stroke="#50D08D" stroke-width="1.83333" stroke-linecap="round" stroke-linejoin="round"/>
</svg>
